<mxfile host="65bd71144e">
    <diagram id="S3_F3bIYdUqPTJyHevy4" name="Page-1">
        <mxGraphModel dx="1515" dy="998" grid="1" gridSize="10" guides="1" tooltips="1" connect="1" arrows="1" fold="1" page="1" pageScale="1" pageWidth="827" pageHeight="1169" math="0" shadow="0">
            <root>
                <mxCell id="0"/>
                <mxCell id="1" parent="0"/>
                <mxCell id="3" value="&lt;span style=&quot;color: rgb(52 , 73 , 94) ; font-family: , sans-serif ; font-size: 15px ; text-align: left ; background-color: rgb(244 , 245 , 246)&quot;&gt;220 Î©&lt;/span&gt;" style="text;html=1;align=center;verticalAlign=middle;whiteSpace=wrap;rounded=0;" parent="1" vertex="1">
                    <mxGeometry x="870" y="730" width="50" height="20" as="geometry"/>
                </mxCell>
                <mxCell id="4" value="" style="pointerEvents=1;verticalLabelPosition=bottom;shadow=0;dashed=0;align=center;html=1;verticalAlign=top;shape=mxgraph.electrical.resistors.resistor_2;" parent="1" vertex="1">
                    <mxGeometry x="850" y="600" width="70" height="20" as="geometry"/>
                </mxCell>
                <mxCell id="45" style="edgeStyle=none;html=1;entryX=1;entryY=0.115;entryDx=0;entryDy=0;entryPerimeter=0;rounded=0;endArrow=none;endFill=0;strokeColor=#CC0000;" parent="1" source="5" target="12" edge="1">
                    <mxGeometry relative="1" as="geometry">
                        <Array as="points">
                            <mxPoint x="590" y="360"/>
                            <mxPoint x="520" y="360"/>
                            <mxPoint x="520" y="402"/>
                        </Array>
                    </mxGeometry>
                </mxCell>
                <mxCell id="46" style="edgeStyle=none;rounded=0;html=1;entryX=1;entryY=0.115;entryDx=0;entryDy=0;entryPerimeter=0;endArrow=none;endFill=0;exitX=1;exitY=0.5;exitDx=0;exitDy=0;strokeColor=#CC0000;" parent="1" source="5" target="44" edge="1">
                    <mxGeometry relative="1" as="geometry">
                        <Array as="points">
                            <mxPoint x="590" y="360"/>
                            <mxPoint x="520" y="360"/>
                            <mxPoint x="520" y="483"/>
                        </Array>
                    </mxGeometry>
                </mxCell>
                <mxCell id="51" style="edgeStyle=none;rounded=0;html=1;entryX=1;entryY=0.885;entryDx=0;entryDy=0;entryPerimeter=0;endArrow=none;endFill=0;strokeColor=#000000;exitX=0;exitY=0.5;exitDx=0;exitDy=0;" parent="1" source="5" target="12" edge="1">
                    <mxGeometry relative="1" as="geometry">
                        <Array as="points">
                            <mxPoint x="590" y="520"/>
                            <mxPoint x="500" y="520"/>
                            <mxPoint x="500" y="423"/>
                        </Array>
                    </mxGeometry>
                </mxCell>
                <mxCell id="52" style="edgeStyle=none;rounded=0;html=1;entryX=1;entryY=0.885;entryDx=0;entryDy=0;entryPerimeter=0;endArrow=none;endFill=0;strokeColor=#000000;" parent="1" source="5" target="44" edge="1">
                    <mxGeometry relative="1" as="geometry">
                        <Array as="points">
                            <mxPoint x="590" y="520"/>
                            <mxPoint x="500" y="520"/>
                            <mxPoint x="500" y="503"/>
                        </Array>
                    </mxGeometry>
                </mxCell>
                <mxCell id="106" style="edgeStyle=none;html=1;entryX=1;entryY=0.115;entryDx=0;entryDy=0;entryPerimeter=0;strokeColor=#CC0000;rounded=0;endArrow=none;endFill=0;exitX=1;exitY=0.5;exitDx=0;exitDy=0;" edge="1" parent="1" source="5" target="104">
                    <mxGeometry relative="1" as="geometry">
                        <Array as="points">
                            <mxPoint x="590" y="360"/>
                            <mxPoint x="520" y="360"/>
                            <mxPoint x="520" y="480"/>
                            <mxPoint x="520" y="553"/>
                        </Array>
                    </mxGeometry>
                </mxCell>
                <mxCell id="5" value="" style="pointerEvents=1;verticalLabelPosition=bottom;shadow=0;dashed=0;align=center;html=1;verticalAlign=top;shape=mxgraph.electrical.miscellaneous.batteryStack;direction=south;rotation=-180;" parent="1" vertex="1">
                    <mxGeometry x="570" y="410" width="40" height="80" as="geometry"/>
                </mxCell>
                <mxCell id="6" value="&lt;span style=&quot;color: rgb(52 , 73 , 94) ; font-family: , sans-serif ; font-size: 15px ; text-align: left ; background-color: rgb(244 , 245 , 246)&quot;&gt;+&lt;/span&gt;" style="text;html=1;strokeColor=none;fillColor=none;align=center;verticalAlign=middle;whiteSpace=wrap;rounded=0;" parent="1" vertex="1">
                    <mxGeometry x="600" y="403" width="20" height="20" as="geometry"/>
                </mxCell>
                <mxCell id="7" value="&lt;div style=&quot;text-align: left&quot;&gt;&lt;font color=&quot;#34495e&quot;&gt;&lt;span style=&quot;font-size: 15px ; background-color: rgb(244 , 245 , 246)&quot;&gt;-&lt;/span&gt;&lt;/font&gt;&lt;/div&gt;" style="text;html=1;strokeColor=none;fillColor=none;align=center;verticalAlign=middle;whiteSpace=wrap;rounded=0;" parent="1" vertex="1">
                    <mxGeometry x="600" y="480" width="20" height="20" as="geometry"/>
                </mxCell>
                <mxCell id="11" value="&lt;div style=&quot;text-align: left&quot;&gt;&lt;span style=&quot;background-color: rgb(244 , 245 , 246) ; font-size: 15px ; color: rgb(52 , 73 , 94)&quot;&gt;Unit4-18&lt;/span&gt;&lt;/div&gt;" style="text;html=1;strokeColor=none;fillColor=none;align=center;verticalAlign=middle;whiteSpace=wrap;rounded=0;" parent="1" vertex="1">
                    <mxGeometry x="329.25" y="180" width="70" height="30" as="geometry"/>
                </mxCell>
                <mxCell id="12" value="" style="pointerEvents=1;verticalLabelPosition=bottom;shadow=0;dashed=0;align=center;html=1;verticalAlign=top;shape=mxgraph.electrical.electro-mechanical.2-way_switch;direction=west;rotation=-180;" parent="1" vertex="1">
                    <mxGeometry x="399.25" y="399.5" width="75" height="26" as="geometry"/>
                </mxCell>
                <mxCell id="15" value="&lt;div style=&quot;text-align: left&quot;&gt;&lt;font color=&quot;#34495e&quot;&gt;&lt;span style=&quot;font-size: 15px ; background-color: rgb(244 , 245 , 246)&quot;&gt;&amp;nbsp; &amp;nbsp; &amp;nbsp; &amp;nbsp; &amp;nbsp; &amp;nbsp; &amp;nbsp; &amp;nbsp; &amp;nbsp; &amp;nbsp; &amp;nbsp; &amp;nbsp; &amp;nbsp; &amp;nbsp;Full Adder&lt;/span&gt;&lt;/font&gt;&lt;/div&gt;&lt;div style=&quot;text-align: left&quot;&gt;&lt;font color=&quot;#34495e&quot;&gt;&lt;span style=&quot;font-size: 15px ; background-color: rgb(244 , 245 , 246)&quot;&gt;Input A | Input B | Carry IN || Carry OUT | Sum&amp;nbsp;&lt;/span&gt;&lt;/font&gt;&lt;/div&gt;&lt;div style=&quot;text-align: left&quot;&gt;&lt;font color=&quot;#34495e&quot;&gt;&lt;span style=&quot;font-size: 15px ; background-color: rgb(244 , 245 , 246)&quot;&gt;&amp;nbsp; &amp;nbsp; &amp;nbsp; 0&amp;nbsp; &amp;nbsp; |&amp;nbsp; &amp;nbsp; &amp;nbsp; 0&amp;nbsp; &amp;nbsp; &amp;nbsp;|&amp;nbsp; &amp;nbsp; &amp;nbsp; &amp;nbsp;0&amp;nbsp; &amp;nbsp; &amp;nbsp; ||&amp;nbsp; &amp;nbsp; &amp;nbsp; &amp;nbsp; &amp;nbsp;0&amp;nbsp; &amp;nbsp; &amp;nbsp; &amp;nbsp; &amp;nbsp;|&amp;nbsp; &amp;nbsp; 0&amp;nbsp;&amp;nbsp;&lt;/span&gt;&lt;/font&gt;&lt;/div&gt;&lt;div style=&quot;text-align: left&quot;&gt;&lt;font color=&quot;#34495e&quot;&gt;&lt;span style=&quot;font-size: 15px ; background-color: rgb(244 , 245 , 246)&quot;&gt;&amp;nbsp; &amp;nbsp; &amp;nbsp; 0&amp;nbsp; &amp;nbsp; |&amp;nbsp; &amp;nbsp; &amp;nbsp; 0&amp;nbsp; &amp;nbsp; &amp;nbsp;|&amp;nbsp; &amp;nbsp; &amp;nbsp; &amp;nbsp;1&amp;nbsp; &amp;nbsp; &amp;nbsp; ||&amp;nbsp; &amp;nbsp; &amp;nbsp; &amp;nbsp; &amp;nbsp;0&amp;nbsp; &amp;nbsp; &amp;nbsp; &amp;nbsp; &amp;nbsp;|&amp;nbsp; &amp;nbsp; 1&lt;/span&gt;&lt;/font&gt;&lt;/div&gt;&lt;div style=&quot;text-align: left&quot;&gt;&lt;font color=&quot;#34495e&quot;&gt;&lt;span style=&quot;font-size: 15px ; background-color: rgb(244 , 245 , 246)&quot;&gt;&amp;nbsp; &amp;nbsp; &amp;nbsp; 0&amp;nbsp; &amp;nbsp; |&amp;nbsp; &amp;nbsp; &amp;nbsp; 1&amp;nbsp; &amp;nbsp; &amp;nbsp;|&amp;nbsp; &amp;nbsp; &amp;nbsp; &amp;nbsp;0&amp;nbsp; &amp;nbsp; &amp;nbsp; ||&amp;nbsp; &amp;nbsp; &amp;nbsp; &amp;nbsp; &amp;nbsp;0&amp;nbsp; &amp;nbsp; &amp;nbsp; &amp;nbsp; &amp;nbsp;|&amp;nbsp; &amp;nbsp; 1&lt;/span&gt;&lt;/font&gt;&lt;/div&gt;&lt;div style=&quot;text-align: left&quot;&gt;&lt;font color=&quot;#34495e&quot;&gt;&lt;span style=&quot;font-size: 15px ; background-color: rgb(244 , 245 , 246)&quot;&gt;&amp;nbsp; &amp;nbsp; &amp;nbsp; 0&amp;nbsp; &amp;nbsp; |&amp;nbsp; &amp;nbsp; &amp;nbsp; 1&amp;nbsp; &amp;nbsp; &amp;nbsp;|&amp;nbsp; &amp;nbsp; &amp;nbsp; &amp;nbsp;1&amp;nbsp; &amp;nbsp; &amp;nbsp; ||&amp;nbsp; &amp;nbsp; &amp;nbsp; &amp;nbsp; &amp;nbsp;1&amp;nbsp; &amp;nbsp; &amp;nbsp; &amp;nbsp; &amp;nbsp;|&amp;nbsp; &amp;nbsp; 0&lt;/span&gt;&lt;/font&gt;&lt;/div&gt;&lt;div style=&quot;text-align: left&quot;&gt;&lt;span style=&quot;color: rgb(52 , 73 , 94) ; font-size: 15px ; background-color: rgb(244 , 245 , 246)&quot;&gt;&amp;nbsp; &amp;nbsp; &amp;nbsp; 1&amp;nbsp; &amp;nbsp; |&amp;nbsp; &amp;nbsp; &amp;nbsp; 0&amp;nbsp; &amp;nbsp; &amp;nbsp;|&amp;nbsp; &amp;nbsp; &amp;nbsp; &amp;nbsp;0&amp;nbsp; &amp;nbsp; &amp;nbsp; ||&amp;nbsp; &amp;nbsp; &amp;nbsp; &amp;nbsp; &amp;nbsp;0&amp;nbsp; &amp;nbsp; &amp;nbsp; &amp;nbsp; &amp;nbsp;|&amp;nbsp; &amp;nbsp; 1&lt;/span&gt;&lt;font color=&quot;#34495e&quot;&gt;&lt;span style=&quot;font-size: 15px ; background-color: rgb(244 , 245 , 246)&quot;&gt;&lt;br&gt;&lt;/span&gt;&lt;/font&gt;&lt;/div&gt;&lt;div style=&quot;text-align: left&quot;&gt;&lt;span style=&quot;color: rgb(52 , 73 , 94) ; font-size: 15px ; background-color: rgb(244 , 245 , 246)&quot;&gt;&amp;nbsp; &amp;nbsp; &amp;nbsp; 1&amp;nbsp; &amp;nbsp; |&amp;nbsp; &amp;nbsp; &amp;nbsp; 0&amp;nbsp; &amp;nbsp; &amp;nbsp;|&amp;nbsp; &amp;nbsp; &amp;nbsp; &amp;nbsp;1&amp;nbsp; &amp;nbsp; &amp;nbsp; ||&amp;nbsp; &amp;nbsp; &amp;nbsp; &amp;nbsp; &amp;nbsp;1&amp;nbsp; &amp;nbsp; &amp;nbsp; &amp;nbsp; &amp;nbsp;|&amp;nbsp; &amp;nbsp; 0&lt;/span&gt;&lt;span style=&quot;color: rgb(52 , 73 , 94) ; font-size: 15px ; background-color: rgb(244 , 245 , 246)&quot;&gt;&lt;br&gt;&lt;/span&gt;&lt;/div&gt;&lt;div style=&quot;text-align: left&quot;&gt;&lt;span style=&quot;color: rgb(52 , 73 , 94) ; font-size: 15px ; background-color: rgb(244 , 245 , 246)&quot;&gt;&amp;nbsp; &amp;nbsp; &amp;nbsp; 1&amp;nbsp; &amp;nbsp; |&amp;nbsp; &amp;nbsp; &amp;nbsp; 1&amp;nbsp; &amp;nbsp; &amp;nbsp;|&amp;nbsp; &amp;nbsp; &amp;nbsp; &amp;nbsp;0&amp;nbsp; &amp;nbsp; &amp;nbsp; ||&amp;nbsp; &amp;nbsp; &amp;nbsp; &amp;nbsp; &amp;nbsp;1&amp;nbsp; &amp;nbsp; &amp;nbsp; &amp;nbsp; &amp;nbsp;|&amp;nbsp; &amp;nbsp; 0&lt;/span&gt;&lt;span style=&quot;color: rgb(52 , 73 , 94) ; font-size: 15px ; background-color: rgb(244 , 245 , 246)&quot;&gt;&lt;br&gt;&lt;/span&gt;&lt;/div&gt;&lt;div style=&quot;text-align: left&quot;&gt;&lt;span style=&quot;color: rgb(52 , 73 , 94) ; font-size: 15px ; background-color: rgb(244 , 245 , 246)&quot;&gt;&amp;nbsp; &amp;nbsp; &amp;nbsp; 1&amp;nbsp; &amp;nbsp; |&amp;nbsp; &amp;nbsp; &amp;nbsp; 1&amp;nbsp; &amp;nbsp; &amp;nbsp;|&amp;nbsp; &amp;nbsp; &amp;nbsp; &amp;nbsp;1&amp;nbsp; &amp;nbsp; &amp;nbsp; ||&amp;nbsp; &amp;nbsp; &amp;nbsp; &amp;nbsp; &amp;nbsp;1&amp;nbsp; &amp;nbsp; &amp;nbsp; &amp;nbsp; &amp;nbsp;|&amp;nbsp; &amp;nbsp; 1&lt;/span&gt;&lt;span style=&quot;color: rgb(52 , 73 , 94) ; font-size: 15px ; background-color: rgb(244 , 245 , 246)&quot;&gt;&lt;br&gt;&lt;/span&gt;&lt;/div&gt;" style="text;html=1;strokeColor=none;fillColor=none;align=center;verticalAlign=middle;whiteSpace=wrap;rounded=0;" parent="1" vertex="1">
                    <mxGeometry x="520" y="40" width="340" height="190" as="geometry"/>
                </mxCell>
                <mxCell id="41" value="&lt;div style=&quot;text-align: left&quot;&gt;&lt;font color=&quot;#34495e&quot;&gt;&lt;span style=&quot;font-size: 15px ; background-color: rgb(244 , 245 , 246)&quot;&gt;Input A&lt;/span&gt;&lt;/font&gt;&lt;/div&gt;" style="text;html=1;strokeColor=none;fillColor=none;align=center;verticalAlign=middle;whiteSpace=wrap;rounded=0;" parent="1" vertex="1">
                    <mxGeometry x="408.5" y="371.5" width="56.5" height="26" as="geometry"/>
                </mxCell>
                <mxCell id="42" value="&lt;div style=&quot;text-align: left&quot;&gt;&lt;font color=&quot;#34495e&quot;&gt;&lt;span style=&quot;font-size: 15px ; background-color: rgb(244 , 245 , 246)&quot;&gt;Full Adder&lt;/span&gt;&lt;/font&gt;&lt;/div&gt;" style="text;html=1;strokeColor=none;fillColor=none;align=center;verticalAlign=middle;whiteSpace=wrap;rounded=0;" parent="1" vertex="1">
                    <mxGeometry x="339.25" y="290" width="111.5" height="30" as="geometry"/>
                </mxCell>
                <mxCell id="43" value="&lt;div style=&quot;text-align: left&quot;&gt;&lt;font color=&quot;#34495e&quot;&gt;&lt;span style=&quot;font-size: 15px ; background-color: rgb(244 , 245 , 246)&quot;&gt;Sum&lt;/span&gt;&lt;/font&gt;&lt;/div&gt;" style="text;html=1;strokeColor=none;fillColor=none;align=center;verticalAlign=middle;whiteSpace=wrap;rounded=0;" parent="1" vertex="1">
                    <mxGeometry x="860" y="470" width="62" height="20" as="geometry"/>
                </mxCell>
                <mxCell id="44" value="" style="pointerEvents=1;verticalLabelPosition=bottom;shadow=0;dashed=0;align=center;html=1;verticalAlign=top;shape=mxgraph.electrical.electro-mechanical.2-way_switch;direction=west;rotation=-180;" parent="1" vertex="1">
                    <mxGeometry x="399.25" y="480" width="75" height="26" as="geometry"/>
                </mxCell>
                <mxCell id="47" value="&lt;div style=&quot;text-align: left&quot;&gt;&lt;font color=&quot;#34495e&quot;&gt;&lt;span style=&quot;font-size: 15px ; background-color: rgb(244 , 245 , 246)&quot;&gt;Input B&lt;/span&gt;&lt;/font&gt;&lt;/div&gt;" style="text;html=1;strokeColor=none;fillColor=none;align=center;verticalAlign=middle;whiteSpace=wrap;rounded=0;" parent="1" vertex="1">
                    <mxGeometry x="414" y="454" width="56.5" height="26" as="geometry"/>
                </mxCell>
                <mxCell id="79" value="" style="verticalLabelPosition=bottom;shadow=0;dashed=0;align=center;html=1;verticalAlign=top;shape=mxgraph.electrical.opto_electronics.led_2;pointerEvents=1;" parent="1" vertex="1">
                    <mxGeometry x="920" y="660" width="80" height="40" as="geometry"/>
                </mxCell>
                <mxCell id="86" value="&lt;div style=&quot;text-align: left&quot;&gt;&lt;font color=&quot;#34495e&quot;&gt;&lt;span style=&quot;font-size: 15px ; background-color: rgb(244 , 245 , 246)&quot;&gt;Carry OUT&lt;/span&gt;&lt;/font&gt;&lt;/div&gt;" style="text;html=1;strokeColor=none;fillColor=none;align=center;verticalAlign=middle;whiteSpace=wrap;rounded=0;" parent="1" vertex="1">
                    <mxGeometry x="250" y="680" width="80" height="20" as="geometry"/>
                </mxCell>
                <mxCell id="87" value="" style="verticalLabelPosition=bottom;shadow=0;dashed=0;align=center;html=1;verticalAlign=top;shape=mxgraph.electrical.opto_electronics.led_2;pointerEvents=1;" parent="1" vertex="1">
                    <mxGeometry x="231" y="780" width="80" height="40" as="geometry"/>
                </mxCell>
                <mxCell id="88" value="" style="pointerEvents=1;verticalLabelPosition=bottom;shadow=0;dashed=0;align=center;html=1;verticalAlign=top;shape=mxgraph.electrical.resistors.resistor_2;" parent="1" vertex="1">
                    <mxGeometry x="757" y="790" width="70" height="20" as="geometry"/>
                </mxCell>
                <mxCell id="90" value="" style="verticalLabelPosition=bottom;shadow=0;dashed=0;align=center;html=1;verticalAlign=top;shape=mxgraph.electrical.logic_gates.logic_gate;operation=and;rotation=-180;" parent="1" vertex="1">
                    <mxGeometry x="151" y="210" width="80" height="40" as="geometry"/>
                </mxCell>
                <mxCell id="97" value="&lt;span style=&quot;color: rgb(52 , 73 , 94) ; font-family: , sans-serif ; font-size: 15px ; text-align: left ; background-color: rgb(244 , 245 , 246)&quot;&gt;220 Î©&lt;/span&gt;" style="text;html=1;align=center;verticalAlign=middle;whiteSpace=wrap;rounded=0;" parent="1" vertex="1">
                    <mxGeometry x="370" y="680" width="50" height="20" as="geometry"/>
                </mxCell>
                <mxCell id="107" style="edgeStyle=none;rounded=0;html=1;entryX=0;entryY=0.5;entryDx=0;entryDy=0;endArrow=none;endFill=0;strokeColor=#000000;exitX=1;exitY=0.885;exitDx=0;exitDy=0;exitPerimeter=0;" edge="1" parent="1" source="104" target="5">
                    <mxGeometry relative="1" as="geometry">
                        <Array as="points">
                            <mxPoint x="500" y="573"/>
                            <mxPoint x="500" y="520"/>
                            <mxPoint x="590" y="520"/>
                        </Array>
                    </mxGeometry>
                </mxCell>
                <mxCell id="104" value="" style="pointerEvents=1;verticalLabelPosition=bottom;shadow=0;dashed=0;align=center;html=1;verticalAlign=top;shape=mxgraph.electrical.electro-mechanical.2-way_switch;direction=west;rotation=-180;" vertex="1" parent="1">
                    <mxGeometry x="399.25" y="550" width="75" height="26" as="geometry"/>
                </mxCell>
                <mxCell id="105" value="&lt;div style=&quot;text-align: left&quot;&gt;&lt;font color=&quot;#34495e&quot;&gt;&lt;span style=&quot;font-size: 15px ; background-color: rgb(244 , 245 , 246)&quot;&gt;Carry IN&lt;/span&gt;&lt;/font&gt;&lt;/div&gt;" style="text;html=1;strokeColor=none;fillColor=none;align=center;verticalAlign=middle;whiteSpace=wrap;rounded=0;" vertex="1" parent="1">
                    <mxGeometry x="408.5" y="524" width="70" height="26" as="geometry"/>
                </mxCell>
                <mxCell id="108" value="" style="verticalLabelPosition=bottom;shadow=0;dashed=0;align=center;html=1;verticalAlign=top;shape=mxgraph.electrical.logic_gates.logic_gate;operation=xor;" vertex="1" parent="1">
                    <mxGeometry x="50" y="446" width="100" height="60" as="geometry"/>
                </mxCell>
            </root>
        </mxGraphModel>
    </diagram>
</mxfile>